<?xml version="1.0" encoding="UTF-8" standalone="no"?>
<!-- Created with Inkscape (http://www.inkscape.org/) -->

<svg
   xmlns:dc="http://purl.org/dc/elements/1.1/"
   xmlns:cc="http://creativecommons.org/ns#"
   xmlns:rdf="http://www.w3.org/1999/02/22-rdf-syntax-ns#"
   xmlns:svg="http://www.w3.org/2000/svg"
   xmlns="http://www.w3.org/2000/svg"
   xmlns:sodipodi="http://sodipodi.sourceforge.net/DTD/sodipodi-0.dtd"
   xmlns:inkscape="http://www.inkscape.org/namespaces/inkscape"
   width="179.0479mm"
   height="36.700603mm"
   viewBox="0 0 179.0479 36.700603"
   version="1.1"
   id="svg8"
   inkscape:version="0.92.1 unknown"
   sodipodi:docname="analyzi.svg">
  <defs
     id="defs2" />
  <sodipodi:namedview
     id="base"
     pagecolor="#ffffff"
     bordercolor="#666666"
     borderopacity="1.0"
     inkscape:pageopacity="0.0"
     inkscape:pageshadow="2"
     inkscape:zoom="1.3218606"
     inkscape:cx="349.51221"
     inkscape:cy="-41.769693"
     inkscape:document-units="mm"
     inkscape:current-layer="layer1"
     showgrid="false"
     showborder="false"
     inkscape:object-nodes="false"
     inkscape:snap-smooth-nodes="false"
     inkscape:snap-intersection-paths="false"
     inkscape:object-paths="false"
     inkscape:snap-midpoints="false"
     fit-margin-top="0"
     fit-margin-left="0"
     fit-margin-right="0"
     fit-margin-bottom="0" />
  <metadata
     id="metadata5">
    <rdf:RDF>
      <cc:Work
         rdf:about="">
        <dc:format>image/svg+xml</dc:format>
        <dc:type
           rdf:resource="http://purl.org/dc/dcmitype/StillImage" />
        <dc:title></dc:title>
      </cc:Work>
    </rdf:RDF>
  </metadata>
  <g
     inkscape:label="Layer 1"
     inkscape:groupmode="layer"
     id="layer1"
     transform="translate(73.201645,-128.33325)">
    <g
       id="g4681">
      <path
         id="path4585"
         transform="scale(0.26458333)"
         d="m -176.98047,485.03906 -21.91015,56.66016 c 2.59096,-0.2833 5.18347,-0.55649 7.77929,-0.8125 l 14.13086,-36.58594 13.26758,34.35156 c 2.45197,-0.16423 4.90429,-0.31758 7.35742,-0.46484 z m 240.896486,0 -20.847657,53.91211 c 2.436932,0.12831 4.873798,0.2662 7.310547,0.39844 l 13.53711,-35.04883 14.140625,36.60938 c 2.571615,0.15034 5.143402,0.29727 7.714843,0.44922 z m -176.644536,3.33399 v 47.8789 c 2.47453,-0.0784 4.9352,-0.13917 7.40625,-0.21093 v -26.74024 l 22.646489,26.20899 c 3.366675,-0.0276 6.733459,-0.0493 10.099609,-0.0527 z m 98.707036,0.92578 v 47.15234 c 2.531314,0.0829 5.0626779,0.17219 7.5937496,0.26367 v -47.41601 z m 142.003904,0 v 54.55078 c 2.46876,0.144 4.93761,0.28978 7.40625,0.43164 v -54.98242 z m 26.75977,0 32.81054,57.70703 c 5.59146,0.25261 11.18431,0.49333 16.77539,0.71094 l 33.38086,-58.41797 h -8.70507 l -32.96289,57.22461 -32.59375,-57.22461 z m 95.98242,0 v 7.77929 h 71.29883 l -31.68164,52.05274 c 3.00583,-0.0325 6.01174,-0.0815 9.01758,-0.13477 l 36.36914,-59.69726 z m 95.00781,0 v 58.01367 c 2.47117,-0.26125 4.94114,-0.5359 7.4082,-0.82812 v -57.18555 z"
         style="font-style:normal;font-variant:normal;font-weight:500;font-stretch:normal;font-size:48.99911499px;line-height:30.62444687px;font-family:GeosansLight;-inkscape-font-specification:'GeosansLight, Medium';font-variant-ligatures:normal;font-variant-caps:normal;font-variant-numeric:normal;font-feature-settings:normal;text-align:start;letter-spacing:0px;word-spacing:0px;writing-mode:lr-tb;text-anchor:start;fill:#666666;fill-opacity:1;stroke:none;stroke-width:4.62983751px;stroke-linecap:butt;stroke-linejoin:miter;stroke-opacity:1"
         inkscape:connector-curvature="0" />
      <path
         id="path4583"
         transform="scale(0.26458333)"
         d="m -112.72852,559.31641 v 62.21093 h 7.40625 v -62.1289 c -2.46897,-0.0317 -4.93781,-0.0622 -7.40625,-0.082 z m -35.36132,0.16797 c -2.50499,0.045 -5.00937,0.0996 -7.51368,0.16015 l 5.66211,14.6582 3.14844,7.59375 15.18555,39.63086 h 7.59375 z m 87.041012,1.05468 54.6210936,63.21094 v -60.66406 c -2.5311782,-0.13882 -5.0628496,-0.28175 -7.5937496,-0.41602 v 41.44922 l -36.833985,-43.19141 c -3.398387,-0.13928 -6.795712,-0.26413 -10.193359,-0.38867 z m -138.041012,1.00391 c -2.56094,0.16614 -5.12158,0.35045 -7.68164,0.53711 l -22.98829,59.44726 h 7.40821 l 15.37109,-39.63086 2.96289,-7.59375 z m 552.23046,3.65039 c -2.46891,0.32681 -4.93855,0.63755 -7.4082,0.94141 v 55.39257 h 7.4082 z m -320.285151,0.16992 -21.71875,56.16406 h 7.408203 l 15.371094,-39.63086 2.96289,-7.59375 3.283203,-8.49804 c -2.43555,-0.14774 -4.871222,-0.29447 -7.30664,-0.44141 z m 55.935547,3.33594 2.164062,5.60351 3.148438,7.59375 15.185544,39.63086 h 7.5918 L 96.550781,569.13867 c -2.586569,-0.14432 -5.173176,-0.2914 -7.759765,-0.43945 z m 39.191404,2.0625 v 50.76562 h 44.63086 v -7.59375 h -37.22461 v -42.82421 c -2.46858,-0.11078 -4.93754,-0.23056 -7.40625,-0.34766 z m 157.70313,0.68164 c -3.07062,0.17233 -6.14144,0.33154 -9.21289,0.47656 l -30.19336,49.60742 h 89.07812 v -7.59375 h -75.55859 z m -93.34961,1.51367 v 48.57031 h 7.59375 v -48.45507 c -2.53117,-0.0329 -5.06227,-0.0706 -7.59375,-0.11524 z"
         style="font-style:normal;font-variant:normal;font-weight:500;font-stretch:normal;font-size:48.99911499px;line-height:30.62444687px;font-family:GeosansLight;-inkscape-font-specification:'GeosansLight, Medium';font-variant-ligatures:normal;font-variant-caps:normal;font-variant-numeric:normal;font-feature-settings:normal;text-align:start;letter-spacing:0px;word-spacing:0px;writing-mode:lr-tb;text-anchor:start;fill:#666666;fill-opacity:1;stroke:none;stroke-width:4.62983751px;stroke-linecap:butt;stroke-linejoin:miter;stroke-opacity:1"
         inkscape:connector-curvature="0" />
      <path
         inkscape:connector-curvature="0"
         id="path4539"
         d="m -39.435235,144.05503 c 21.775892,-1.3289 43.6844548,-0.122 65.18026,1.15054 27.795922,1.64551 54.90198,3.40186 80.101225,-0.0945 -28.706648,6.46682 -60.373781,4.38874 -93.076544,2.45273 -20.9733073,-1.24161 -42.370844,-2.42342 -63.6695,-1.24303 -7.453684,0.41307 -14.895086,1.11847 -22.301851,2.20893 11.16842,-2.40701 22.449632,-3.784 33.76641,-4.47464 z"
         style="color:#000000;font-style:normal;font-variant:normal;font-weight:normal;font-stretch:normal;font-size:medium;line-height:normal;font-family:sans-serif;font-variant-ligatures:normal;font-variant-position:normal;font-variant-caps:normal;font-variant-numeric:normal;font-variant-alternates:normal;font-feature-settings:normal;text-indent:0;text-align:start;text-decoration:none;text-decoration-line:none;text-decoration-style:solid;text-decoration-color:#000000;letter-spacing:normal;word-spacing:normal;text-transform:none;writing-mode:lr-tb;direction:ltr;text-orientation:mixed;dominant-baseline:auto;baseline-shift:baseline;text-anchor:start;white-space:normal;shape-padding:0;clip-rule:nonzero;display:inline;overflow:visible;visibility:visible;opacity:0.53500001;isolation:auto;mix-blend-mode:normal;color-interpolation:sRGB;color-interpolation-filters:linearRGB;solid-color:#000000;solid-opacity:1;vector-effect:none;fill:#ff0000;fill-opacity:1;fill-rule:evenodd;stroke:none;stroke-width:0.20104408px;stroke-linecap:butt;stroke-linejoin:miter;stroke-miterlimit:4;stroke-dasharray:none;stroke-dashoffset:0;stroke-opacity:1;color-rendering:auto;image-rendering:auto;shape-rendering:auto;text-rendering:auto;enable-background:accumulate" />
    </g>
  </g>
</svg>
